<svg width="419" height="418" viewBox="0 0 419 418" fill="none" xmlns="http://www.w3.org/2000/svg">
<path d="M90.5541 404.11L57.6674 396.525L114.553 149.875L103.591 147.346L96.0062 180.233L63.1195 172.648L78.2891 106.875L155.025 124.573L90.5541 404.11Z" fill="white"/>
<path d="M250.07 118.125H328.82V148.807H283.82V159.034H328.82V230.625H250.07V118.125ZM295.07 199.943V189.716H283.82V199.943H295.07Z" fill="white"/>
<path d="M227.57 156.478H238.82V248.522H227.57V258.75H171.32V248.522H160.07V156.478H171.32V146.25H227.57V156.478ZM193.82 228.071H205.07V176.929H193.82V228.071Z" fill="white"/>
<path d="M306.32 247.5H385.07V306.307H351.32V282.784H340.07V341.591H351.32V318.068H385.07V376.875H306.32V247.5Z" fill="white"/>
<path d="M216.297 292.672H295.047V337.672H261.297V326.422H250.047V371.422H261.297V348.922H295.047V405.172H216.297V292.672Z" fill="white"/>
<path d="M216.297 292.672H295.047V337.672H261.297V326.422H250.047V371.422H261.297V348.922H295.047V405.172H216.297V292.672Z" fill="white"/>
<path d="M137.57 281.422H205.07V405.172H126.32V326.422H171.32V315.172H137.57V281.422ZM171.32 371.422V360.172H160.07V371.422H171.32Z" fill="white"/>
<path d="M368.191 39.375H379.441V50.625H368.191V61.875H356.941V50.625H345.691V39.375H356.941V28.125H368.191V39.375Z" fill="#2E9451"/>
</svg>