<svg width="2692" height="110" viewBox="0 0 2692 110" fill="none" xmlns="http://www.w3.org/2000/svg">
<path d="M0.443726 2.75155H32.5437L47.0937 57.6516L61.0437 2.75155H83.5437L96.2937 57.8016L110.694 2.75155H142.944L115.044 107.602H85.9437L71.6937 51.9516L57.4437 107.602H28.3437L0.443726 2.75155ZM151.979 2.75155H183.029V41.3016H217.979V2.75155H249.029V107.602H217.979V67.4016H183.029V107.602H151.979V2.75155ZM260.963 2.75155H337.013V28.8516H292.013V43.2516H324.413V67.1016H292.013V81.5016H337.013V107.602H260.963V2.75155ZM344.459 2.75155H393.209C405.809 2.75155 415.759 5.95155 423.059 12.3516C430.359 18.6516 434.009 27.8016 434.009 39.8016C434.009 47.6016 432.359 54.2516 429.059 59.7516C425.859 65.2516 421.259 69.4516 415.259 72.3516L432.809 107.602H401.009L385.709 76.8516H375.509V107.602H344.459V2.75155ZM387.059 52.2516C391.859 52.2516 395.559 51.3516 398.159 49.5516C400.859 47.6516 402.209 44.4016 402.209 39.8016C402.209 35.2016 400.859 32.0016 398.159 30.2016C395.559 28.3016 391.859 27.3516 387.059 27.3516H375.509V52.2516H387.059ZM443.043 2.75155H519.093V28.8516H474.093V43.2516H506.493V67.1016H474.093V81.5016H519.093V107.602H443.043V2.75155ZM608.336 109.852C601.636 109.852 594.886 109.152 588.086 107.752C581.286 106.452 575.786 104.702 571.586 102.502V75.0516C577.086 78.0516 582.836 80.3016 588.836 81.8016C594.936 83.3016 600.636 84.0516 605.936 84.0516C613.636 84.0516 617.486 82.0016 617.486 77.9016C617.486 76.2016 616.886 74.7516 615.686 73.5516C614.586 72.2516 612.886 71.0516 610.586 69.9516C608.286 68.7516 604.636 67.0516 599.636 64.8516C589.936 60.6516 582.886 56.0516 578.486 51.0516C574.186 46.0516 572.036 39.8516 572.036 32.4516C572.036 26.2516 573.736 20.7516 577.136 15.9516C580.636 11.0516 585.486 7.25156 591.686 4.55156C597.886 1.85156 605.036 0.501556 613.136 0.501556C619.736 0.501556 625.586 1.05156 630.686 2.15156C635.786 3.15156 640.736 4.80156 645.536 7.10156V33.6516C636.836 28.8516 627.936 26.4516 618.836 26.4516C614.836 26.4516 611.636 27.0516 609.236 28.2516C606.836 29.3516 605.636 31.0016 605.636 33.2016C605.636 35.4016 606.686 37.2016 608.786 38.6016C610.986 39.9016 615.086 41.7516 621.086 44.1516L624.386 45.5016C631.486 48.4016 636.936 51.3016 640.736 54.2016C644.636 57.0016 647.436 60.3016 649.136 64.1016C650.836 67.8016 651.686 72.5016 651.686 78.2016C651.686 88.1016 648.086 95.8516 640.886 101.452C633.686 107.052 622.836 109.852 608.336 109.852ZM660.719 2.75155H736.769V28.8516H691.769V43.2516H724.169V67.1016H691.769V81.5016H736.769V107.602H660.719V2.75155ZM744.215 2.75155H820.265V28.8516H775.265V43.2516H807.665V67.1016H775.265V81.5016H820.265V107.602H744.215V2.75155ZM827.711 2.75155H858.761V43.4016L891.011 2.75155H927.611L887.261 53.6016L930.461 107.602H893.861L858.761 63.8016V107.602H827.711V2.75155ZM939.479 2.75155H1015.53V28.8516H970.529V43.2516H1002.93V67.1016H970.529V81.5016H1015.53V107.602H939.479V2.75155ZM1022.97 2.75155H1071.72C1084.32 2.75155 1094.27 5.95155 1101.57 12.3516C1108.87 18.6516 1112.52 27.8016 1112.52 39.8016C1112.52 47.6016 1110.87 54.2516 1107.57 59.7516C1104.37 65.2516 1099.77 69.4516 1093.77 72.3516L1111.32 107.602H1079.52L1064.22 76.8516H1054.02V107.602H1022.97V2.75155ZM1065.57 52.2516C1070.37 52.2516 1074.07 51.3516 1076.67 49.5516C1079.37 47.6516 1080.72 44.4016 1080.72 39.8016C1080.72 35.2016 1079.37 32.0016 1076.67 30.2016C1074.07 28.3016 1070.37 27.3516 1065.57 27.3516H1054.02V52.2516H1065.57ZM1155.31 109.852C1148.61 109.852 1141.86 109.152 1135.06 107.752C1128.26 106.452 1122.76 104.702 1118.56 102.502V75.0516C1124.06 78.0516 1129.81 80.3016 1135.81 81.8016C1141.91 83.3016 1147.61 84.0516 1152.91 84.0516C1160.61 84.0516 1164.46 82.0016 1164.46 77.9016C1164.46 76.2016 1163.86 74.7516 1162.66 73.5516C1161.56 72.2516 1159.86 71.0516 1157.56 69.9516C1155.26 68.7516 1151.61 67.0516 1146.61 64.8516C1136.91 60.6516 1129.86 56.0516 1125.46 51.0516C1121.16 46.0516 1119.01 39.8516 1119.01 32.4516C1119.01 26.2516 1120.71 20.7516 1124.11 15.9516C1127.61 11.0516 1132.46 7.25156 1138.66 4.55156C1144.86 1.85156 1152.01 0.501556 1160.11 0.501556C1166.71 0.501556 1172.56 1.05156 1177.66 2.15156C1182.76 3.15156 1187.71 4.80156 1192.51 7.10156V33.6516C1183.81 28.8516 1174.91 26.4516 1165.81 26.4516C1161.81 26.4516 1158.61 27.0516 1156.21 28.2516C1153.81 29.3516 1152.61 31.0016 1152.61 33.2016C1152.61 35.4016 1153.66 37.2016 1155.76 38.6016C1157.96 39.9016 1162.06 41.7516 1168.06 44.1516L1171.36 45.5016C1178.46 48.4016 1183.91 51.3016 1187.71 54.2016C1191.61 57.0016 1194.41 60.3016 1196.11 64.1016C1197.81 67.8016 1198.66 72.5016 1198.66 78.2016C1198.66 88.1016 1195.06 95.8516 1187.86 101.452C1180.66 107.052 1169.81 109.852 1155.31 109.852ZM1289.49 109.852C1282.79 109.852 1276.04 109.152 1269.24 107.752C1262.44 106.452 1256.94 104.702 1252.74 102.502V75.0516C1258.24 78.0516 1263.99 80.3016 1269.99 81.8016C1276.09 83.3016 1281.79 84.0516 1287.09 84.0516C1294.79 84.0516 1298.64 82.0016 1298.64 77.9016C1298.64 76.2016 1298.04 74.7516 1296.84 73.5516C1295.74 72.2516 1294.04 71.0516 1291.74 69.9516C1289.44 68.7516 1285.79 67.0516 1280.79 64.8516C1271.09 60.6516 1264.04 56.0516 1259.64 51.0516C1255.34 46.0516 1253.19 39.8516 1253.19 32.4516C1253.19 26.2516 1254.89 20.7516 1258.29 15.9516C1261.79 11.0516 1266.64 7.25156 1272.84 4.55156C1279.04 1.85156 1286.19 0.501556 1294.29 0.501556C1300.89 0.501556 1306.74 1.05156 1311.84 2.15156C1316.94 3.15156 1321.89 4.80156 1326.69 7.10156V33.6516C1317.99 28.8516 1309.09 26.4516 1299.99 26.4516C1295.99 26.4516 1292.79 27.0516 1290.39 28.2516C1287.99 29.3516 1286.79 31.0016 1286.79 33.2016C1286.79 35.4016 1287.84 37.2016 1289.94 38.6016C1292.14 39.9016 1296.24 41.7516 1302.24 44.1516L1305.54 45.5016C1312.64 48.4016 1318.09 51.3016 1321.89 54.2016C1325.79 57.0016 1328.59 60.3016 1330.29 64.1016C1331.99 67.8016 1332.84 72.5016 1332.84 78.2016C1332.84 88.1016 1329.24 95.8516 1322.04 101.452C1314.84 107.052 1303.99 109.852 1289.49 109.852ZM1341.87 2.75155H1372.92V41.3016H1407.87V2.75155H1438.92V107.602H1407.87V67.4016H1372.92V107.602H1341.87V2.75155ZM1489.86 2.75155H1519.71L1561.56 107.602H1529.76L1521.96 87.6516H1487.61L1479.66 107.602H1447.86L1489.86 2.75155ZM1514.76 64.1016L1504.71 34.7016L1494.66 64.1016H1514.76ZM1570.53 2.75155H1618.83C1631.43 2.75155 1641.43 6.00156 1648.83 12.5016C1656.33 18.9016 1660.08 28.1016 1660.08 40.1016C1660.08 52.1016 1656.33 61.3516 1648.83 67.8516C1641.43 74.3516 1631.43 77.6016 1618.83 77.6016H1601.58V107.602H1570.53V2.75155ZM1612.98 53.0016C1617.78 53.0016 1621.53 52.0516 1624.23 50.1516C1626.93 48.2516 1628.28 44.9016 1628.28 40.1016C1628.28 35.4016 1626.93 32.1016 1624.23 30.2016C1621.53 28.3016 1617.78 27.3516 1612.98 27.3516H1601.58V53.0016H1612.98ZM1667.65 2.75155H1743.7V28.8516H1698.7V43.2516H1731.1V67.1016H1698.7V81.5016H1743.7V107.602H1667.65V2.75155ZM1822.15 28.8516H1793.95V2.75155H1881.4V28.8516H1853.2V107.602H1822.15V28.8516ZM1888.11 2.75155H1919.16V41.3016H1954.11V2.75155H1985.16V107.602H1954.11V67.4016H1919.16V107.602H1888.11V2.75155ZM1997.1 2.75155H2073.15V28.8516H2028.15V43.2516H2060.55V67.1016H2028.15V81.5016H2073.15V107.602H1997.1V2.75155ZM2128.64 2.75155H2204.69V28.8516H2159.69V43.2516H2192.09V67.1016H2159.69V107.602H2128.64V2.75155ZM2258.97 109.852C2247.97 109.852 2238.82 107.802 2231.52 103.702C2224.22 99.6016 2218.77 93.9516 2215.17 86.7516C2211.67 79.5516 2209.92 71.3016 2209.92 62.0016V2.75155H2240.97V61.7016C2240.97 68.1016 2242.47 72.9516 2245.47 76.2516C2248.57 79.5516 2253.07 81.2016 2258.97 81.2016C2264.87 81.2016 2269.32 79.5516 2272.32 76.2516C2275.42 72.9516 2276.97 68.1016 2276.97 61.7016V2.75155H2308.02V62.0016C2308.02 71.3016 2306.22 79.5516 2302.62 86.7516C2299.12 93.9516 2293.72 99.6016 2286.42 103.702C2279.12 107.802 2269.97 109.852 2258.97 109.852ZM2342.17 28.8516H2313.97V2.75155H2401.42V28.8516H2373.22V107.602H2342.17V28.8516ZM2456.43 109.852C2445.43 109.852 2436.28 107.802 2428.98 103.702C2421.68 99.6016 2416.23 93.9516 2412.63 86.7516C2409.13 79.5516 2407.38 71.3016 2407.38 62.0016V2.75155H2438.43V61.7016C2438.43 68.1016 2439.93 72.9516 2442.93 76.2516C2446.03 79.5516 2450.53 81.2016 2456.43 81.2016C2462.33 81.2016 2466.78 79.5516 2469.78 76.2516C2472.88 72.9516 2474.43 68.1016 2474.43 61.7016V2.75155H2505.48V62.0016C2505.48 71.3016 2503.68 79.5516 2500.08 86.7516C2496.58 93.9516 2491.18 99.6016 2483.88 103.702C2476.58 107.802 2467.43 109.852 2456.43 109.852ZM2516.68 2.75155H2565.43C2578.03 2.75155 2587.98 5.95155 2595.28 12.3516C2602.58 18.6516 2606.23 27.8016 2606.23 39.8016C2606.23 47.6016 2604.58 54.2516 2601.28 59.7516C2598.08 65.2516 2593.48 69.4516 2587.48 72.3516L2605.03 107.602H2573.23L2557.93 76.8516H2547.73V107.602H2516.68V2.75155ZM2559.28 52.2516C2564.08 52.2516 2567.78 51.3516 2570.38 49.5516C2573.08 47.6516 2574.43 44.4016 2574.43 39.8016C2574.43 35.2016 2573.08 32.0016 2570.38 30.2016C2567.78 28.3016 2564.08 27.3516 2559.28 27.3516H2547.73V52.2516H2559.28ZM2615.26 2.75155H2691.31V28.8516H2646.31V43.2516H2678.71V67.1016H2646.31V81.5016H2691.31V107.602H2615.26V2.75155Z" fill="#FF8DF7"/>
</svg>